<svg width="1976" height="1287" xmlns="http://www.w3.org/2000/svg" xmlns:xlink="http://www.w3.org/1999/xlink" xml:space="preserve" overflow="hidden"><defs><clipPath id="clip0"><rect x="2099" y="17515" width="1976" height="1287"/></clipPath><clipPath id="clip1"><rect x="2100" y="17515" width="1973" height="1284"/></clipPath><clipPath id="clip2"><rect x="2100" y="17515" width="1973" height="1284"/></clipPath><clipPath id="clip3"><rect x="2100" y="17515" width="1973" height="1284"/></clipPath><clipPath id="clip4"><rect x="2231" y="17764" width="1795" height="827"/></clipPath><clipPath id="clip5"><rect x="2231" y="17764" width="1795" height="827"/></clipPath><clipPath id="clip6"><rect x="2231" y="17764" width="1795" height="827"/></clipPath><clipPath id="clip7"><rect x="2231" y="17764" width="1795" height="827"/></clipPath><clipPath id="clip8"><rect x="2231" y="17764" width="1795" height="827"/></clipPath><clipPath id="clip9"><rect x="2100" y="17515" width="1973" height="1284"/></clipPath><clipPath id="clip10"><rect x="2100" y="17515" width="1973" height="1284"/></clipPath><clipPath id="clip11"><rect x="2100" y="17515" width="1973" height="1284"/></clipPath><clipPath id="clip12"><rect x="2100" y="17515" width="1973" height="1284"/></clipPath><clipPath id="clip13"><rect x="2100" y="17515" width="1973" height="1284"/></clipPath><clipPath id="clip14"><rect x="2100" y="17515" width="1973" height="1284"/></clipPath><clipPath id="clip15"><rect x="2100" y="17515" width="1973" height="1284"/></clipPath><clipPath id="clip16"><rect x="2100" y="17515" width="1973" height="1284"/></clipPath><clipPath id="clip17"><rect x="2100" y="17515" width="1973" height="1284"/></clipPath><clipPath id="clip18"><rect x="2100" y="17515" width="1973" height="1284"/></clipPath><clipPath id="clip19"><rect x="2100" y="17515" width="1973" height="1284"/></clipPath><clipPath id="clip20"><rect x="2100" y="17515" width="1973" height="1284"/></clipPath><clipPath id="clip21"><rect x="2100" y="17515" width="1973" height="1284"/></clipPath><clipPath id="clip22"><rect x="2100" y="17515" width="1973" height="1284"/></clipPath><clipPath id="clip23"><rect x="2100" y="17515" width="1973" height="1284"/></clipPath><clipPath id="clip24"><rect x="2100" y="17515" width="1973" height="1284"/></clipPath><clipPath id="clip25"><rect x="2100" y="17515" width="1973" height="1284"/></clipPath><clipPath id="clip26"><rect x="2100" y="17515" width="1973" height="1284"/></clipPath><clipPath id="clip27"><rect x="2100" y="17515" width="1973" height="1284"/></clipPath><clipPath id="clip28"><rect x="2100" y="17515" width="1973" height="1284"/></clipPath><clipPath id="clip29"><rect x="2100" y="17515" width="1973" height="1284"/></clipPath><clipPath id="clip30"><rect x="2100" y="17515" width="1973" height="1284"/></clipPath><clipPath id="clip31"><rect x="2100" y="17515" width="1973" height="1284"/></clipPath></defs><g clip-path="url(#clip0)" transform="translate(-2099 -17515)"><rect x="2100" y="17516" width="1973" height="1284" fill="#FFFFFF"/><g clip-path="url(#clip1)"><path d="M2231.5 18451.1 4023.5 18451.1M2231.5 18314.1 4023.5 18314.1M2231.5 18176.1 4023.5 18176.1M2231.5 18039.1 4023.5 18039.1M2231.5 17901.1 4023.5 17901.1M2231.5 17764.5 4023.5 17764.5" stroke="#D9D9D9" stroke-width="3.4375" stroke-linejoin="round" stroke-miterlimit="10" fill="none"/></g><g clip-path="url(#clip2)"><path d="M2231.5 18588.5 4023.5 18588.5" stroke="#D9D9D9" stroke-width="3.4375" stroke-linejoin="round" stroke-miterlimit="10" fill="none" fill-rule="evenodd"/></g><g clip-path="url(#clip3)"><path d="M2231.5 18588.5 2231.5 18601.5M2591.59 18588.5 2591.59 18601.5M2953.6 18588.5 2953.6 18601.5M3313.61 18588.5 3313.61 18601.5M3674.5 18588.5 3674.5 18601.5" stroke="#D9D9D9" stroke-width="3.4375" stroke-linejoin="round" stroke-miterlimit="10" fill="none"/></g><g clip-path="url(#clip4)"><path d="M2232 18347.6 2238.07 18313.6 2245.07 18313.6 2252.07 18313.6 2259.07 18313.6 2266.07 18286.6 2273.07 18293.6 2280.07 18299.6 2287.07 18293.6 2294.08 18334.6 2301.08 18293.6 2308.08 18293.6 2314.08 18293.6 2321.08 18224.6 2328.08 18306.6 2335.08 18299.6 2342.08 18286.6 2349.08 18293.6 2356.08 18279.6 2363.08 18299.6 2370.08 18293.6 2377.08 18286.6 2384.08 18293.6 2391.08 18286.6 2397.08 18293.6 2404.08 18272.6 2411.08 18286.6 2418.08 18299.6 2425.08 18293.6 2432.08 18299.6 2439.08 18293.6 2446.08 18272.6 2453.08 18306.6 2460.08 18313.6 2467.08 18389 2474.08 18368.6 2480.08 18306.6 2487.08 18299.6 2494.08 18293.6 2501.08 18313.6 2508.08 18299.6 2515.08 18293.6 2522.08 18265.6 2529.08 18286.6 2536.08 18286.6 2543.08 18293.6 2550.08 18286.6 2556.08 18286.6 2563.08 18272.6 2570.08 18251.6 2577.08 18272.6 2584.08 18272.6 2591.08 18299.6 2598.09 18258.6 2605.09 18244.6 2612.09 18244.6 2619.09 18265.6 2626.09 18238.6 2633.09 18231.6 2639.09 18231.6 2646.09 18231.6 2653.09 18224.6 2660.09 18217.6 2667.09 18210.6 2674.09 18217.6 2681.09 18224.6 2688.09 18217.6 2695.09 18217.6 2702.09 18203.6 2709.09 18217.6 2716.09 18224.6 2722.09 18224.6 2729.09 18224.6 2736.09 18210.6 2743.09 18224.6 2750.09 18224.6 2757.09 18203.6 2764.09 18224.6 2771.09 18258.6 2778.09 18224.6 2785.09 18217.6 2792.09 18210.6 2798.09 18265.6 2805.09 18251.6 2812.09 18238.6 2819.09 18251.6 2826.09 18341.6 2833.09 18341.6 2840.09 18238.6 2847.09 18244.6 2854.09 18231.6 2861.09 18217.6 2868.09 18224.6 2875.09 18189.6 2881.09 18196.6 2888.09 18183.6 2895.09 18189.6 2902.1 18231.6 2909.1 18244.6 2916.1 18244.6 2923.1 18231.6 2930.1 18217.6 2937.1 18238.6 2944.1 18217.6 2951.1 18169.6 2958.1 18210.6 2964.1 18210.6 2971.1 18210.6 2978.1 18217.6 2985.1 18210.6 2992.1 18196.6 2999.1 18210.6 3006.1 18210.6 3013.1 18203.6 3020.1 18183.6 3027.1 18183.6 3034.1 18176.6 3041.1 18203.6 3047.1 18189.6 3054.1 18210.6 3061.1 18210.6 3068.1 18189.6 3075.1 18210.6 3082.1 18203.6 3089.1 18210.6 3096.1 18217.6 3103.1 18265.6 3110.1 18272.6 3117.1 18313.6 3123.1 18320.6 3130.1 18327.6 3137.1 18334.6 3144.1 18327.6 3151.1 18327.6 3158.1 18320.6 3165.1 18327.6 3172.1 18327.6 3179.1 18327.6 3186.1 18361.6 3193.1 18375.6 3200.1 18334.6 3206.11 18327.6 3213.11 18306.6 3220.11 18306.6 3227.11 18299.6 3234.11 18320.6 3241.11 18306.6 3248.11 18293.6 3255.11 18286.6 3262.11 18286.6 3269.11 18286.6 3276.11 18286.6 3283.11 18286.6 3289.11 18299.6 3296.11 18279.6 3303.11 18293.6 3310.11 18286.6 3317.11 18299.6 3324.11 18299.6 3331.11 18279.6 3338.11 18279.6 3345.11 18272.6 3352.11 18258.6 3359.11 18272.6 3365.11 18258.6 3372.11 18258.6 3379.11 18258.6 3386.11 18265.6 3393.11 18279.6 3400.11 18272.6 3407.11 18279.6 3414.11 18272.6 3421.11 18265.6 3428.11 18286.6 3435.11 18272.6 3442.11 18272.6 3448.11 18251.6 3455.11 18265.6 3462.11 18265.6 3469.11 18258.6 3476.11 18265.6 3483.11 18251.6 3490.11 18238.6 3497.11 18265.6 3504.11 18231.6 3511.12 18210.6 3518.12 18238.6 3525.12 18238.6 3531.12 18224.6 3538.12 18231.6 3545.12 18258.6 3552.12 18286.6 3559.12 18141.6 3566.12 18080.6 3573.12 18114.6 3580.12 18052.6 3587.12 18093.6 3594.12 18025.6 3601.12 17970.6 3608.12 18004.6 3614.12 17990.6 3621.12 17997.6 3628.12 17976.6 3635.12 17976.6 3642.12 17908.6 3649.12 17928.6 3656.12 17997.6 3663.12 17922.6 3670.12 17928.6 3677.12 17935.6 3684.12 17935.6 3690.12 17942.6 3697.12 17963.6 3704.12 18004.6 3711.12 17963.6 3718.12 17970.6 3725.12 17915.6 3732.12 17970.6 3739.12 17970.6 3746.12 17963.6 3753.12 17963.6 3760.12 17970.6 3767.12 17942.6 3773.12 17970.6 3780.12 17990.6 3787.12 17935.6 3794.12 17990.6 3801.12 17990.6 3808.12 17970.6 3815.13 17963.6 3822.13 17963.6 3829.13 18011.6 3836.13 17976.6 3843.13 17970.6 3850.13 18004.6 3856.13 17976.6 3863.13 17956.6 3870.13 17908.6 3877.13 17997.6 3884.13 18018.6 3891.13 18004.6 3898.13 17976.6 3905.13 18004.6 3912.13 18080.6 3919.13 18038.6 3926.13 17956.6 3933.13 17963.6 3939.13 17976.6 3946.13 17902 3953.13 17935.6 3960.13 17928.6 3967.13 17949.6 3974.13 17949.6 3981.13 17928.6 3988.13 17935.6 3995.13 17942.6 4002.13 17935.6 4009.13 17976.6 4015.13 17983.6 4023 18004.6" stroke="#4472C4" stroke-width="10.3125" stroke-linecap="round" stroke-linejoin="round" stroke-miterlimit="10" fill="none"/></g><g clip-path="url(#clip5)"><path d="M2232 18341.6 2238.07 18286.6 2245.07 18272.6 2252.07 18286.6 2259.07 18293.6 2266.07 18286.6 2273.07 18293.6 2280.07 18293.6 2287.07 18286.6 2294.08 18299.6 2301.08 18279.6 2308.08 18286.6 2314.08 18265.6 2321.08 18293.6 2328.08 18286.6 2335.08 18306.6 2342.08 18299.6 2349.08 18286.6 2356.08 18293.6 2363.08 18293.6 2370.08 18293.6 2377.08 18293.6 2384.08 18299.6 2391.08 18286.6 2397.08 18286.6 2404.08 18279.6 2411.08 18299.6 2418.08 18334.6 2425.08 18293.6 2432.08 18306.6 2439.08 18272.6 2446.08 18286.6 2453.08 18299.6 2460.08 18320.6 2467.08 18402.6 2474.08 18382.6 2480.08 18306.6 2487.08 18313.6 2494.08 18293.6 2501.08 18306.6 2508.08 18293.6 2515.08 18293.6 2522.08 18279.6 2529.08 18293.6 2536.08 18306.6 2543.08 18286.6 2550.08 18293.6 2556.08 18286.6 2563.08 18293.6 2570.08 18279.6 2577.08 18320.6 2584.08 18313.6 2591.08 18334.6 2598.09 18299.6 2605.09 18293.6 2612.09 18286.6 2619.09 18293.6 2626.09 18299.6 2633.09 18279.6 2639.09 18265.6 2646.09 18251.6 2653.09 18279.6 2660.09 18238 2667.09 18265.6 2674.09 18279.6 2681.09 18286.6 2688.09 18279.6 2695.09 18306.6 2702.09 18279.6 2709.09 18286.6 2716.09 18299.6 2722.09 18265.6 2729.09 18272.6 2736.09 18272.6 2743.09 18293.6 2750.09 18306.6 2757.09 18286.6 2764.09 18293.6 2771.09 18334.6 2778.09 18286.6 2785.09 18293.6 2792.09 18272.6 2798.09 18299.6 2805.09 18293.6 2812.09 18299.6 2819.09 18293.6 2826.09 18389.6 2833.09 18402.6 2840.09 18306.6 2847.09 18313.6 2854.09 18306.6 2861.09 18279.6 2868.09 18286.6 2875.09 18251.6 2881.09 18251.6 2888.09 18279.6 2895.09 18286.6 2902.1 18313.6 2909.1 18334.6 2916.1 18361.6 2923.1 18341.6 2930.1 18347.6 2937.1 18334.6 2944.1 18334.6 2951.1 18341.6 2958.1 18334.6 2964.1 18320.6 2971.1 18341.6 2978.1 18334.6 2985.1 18341.6 2992.1 18334.6 2999.1 18320.6 3006.1 18327.6 3013.1 18341.6 3020.1 18334.6 3027.1 18327.6 3034.1 18293.6 3041.1 18341.6 3047.1 18341.6 3054.1 18354.6 3061.1 18334.6 3068.1 18327.6 3075.1 18347.6 3082.1 18347.6 3089.1 18341.6 3096.1 18341.6 3103.1 18375.6 3110.1 18361.6 3117.1 18396.6 3123.1 18396.6 3130.1 18409.6 3137.1 18402.6 3144.1 18402.6 3151.1 18402.6 3158.1 18409.6 3165.1 18402.6 3172.1 18409.6 3179.1 18402.6 3186.1 18444.6 3193.1 18472 3200.1 18423.6 3206.11 18409.6 3213.11 18396.6 3220.11 18396.6 3227.11 18389.6 3234.11 18396.6 3241.11 18402.6 3248.11 18382.6 3255.11 18396.6 3262.11 18389.6 3269.11 18382.6 3276.11 18389.6 3283.11 18409.6 3289.11 18402.6 3296.11 18396.6 3303.11 18389.6 3310.11 18396.6 3317.11 18396.6 3324.11 18402.6 3331.11 18389.6 3338.11 18396.6 3345.11 18396.6 3352.11 18389.6 3359.11 18396.6 3365.11 18389.6 3372.11 18389.6 3379.11 18396.6 3386.11 18389.6 3393.11 18396.6 3400.11 18396.6 3407.11 18402.6 3414.11 18402.6 3421.11 18402.6 3428.11 18402.6 3435.11 18396.6 3442.11 18409.6 3448.11 18382.6 3455.11 18382.6 3462.11 18389.6 3469.11 18389.6 3476.11 18389.6 3483.11 18382.6 3490.11 18396.6 3497.11 18416.6 3504.11 18382.6 3511.12 18389.6 3518.12 18389.6 3525.12 18389.6 3531.12 18389.6 3538.12 18382.6 3545.12 18409.6 3552.12 18451.6 3559.12 18368.6 3566.12 18341.6 3573.12 18327.6 3580.12 18327.6 3587.12 18327.6 3594.12 18306.6 3601.12 18286.6 3608.12 18320.6 3614.12 18299.6 3621.12 18313.6 3628.12 18313.6 3635.12 18293.6 3642.12 18286.6 3649.12 18293.6 3656.12 18327.6 3663.12 18299.6 3670.12 18306.6 3677.12 18341.6 3684.12 18293.6 3690.12 18313.6 3697.12 18334.6 3704.12 18327.6 3711.12 18320.6 3718.12 18341.6 3725.12 18313.6 3732.12 18320.6 3739.12 18320.6 3746.12 18334.6 3753.12 18320.6 3760.12 18327.6 3767.12 18327.6 3773.12 18341.6 3780.12 18347.6 3787.12 18327.6 3794.12 18347.6 3801.12 18334.6 3808.12 18327.6 3815.13 18320.6 3822.13 18334.6 3829.13 18361.6 3836.13 18341.6 3843.13 18341.6 3850.13 18368.6 3856.13 18354.6 3863.13 18334.6 3870.13 18320.6 3877.13 18334.6 3884.13 18341.6 3891.13 18354.6 3898.13 18334.6 3905.13 18347.6 3912.13 18409.6 3919.13 18368.6 3926.13 18341.6 3933.13 18347.6 3939.13 18347.6 3946.13 18327.6 3953.13 18320.6 3960.13 18320.6 3967.13 18320.6 3974.13 18341.6 3981.13 18341.6 3988.13 18334.6 3995.13 18334.6 4002.13 18341.6 4009.13 18361.6 4015.13 18375.6 4023 18361.6" stroke="#ED7D31" stroke-width="10.3125" stroke-linecap="round" stroke-linejoin="round" stroke-miterlimit="10" fill="none"/></g><g clip-path="url(#clip6)"><path d="M2232 18512.6 2238.07 18505.6 2245.07 18505.6 2252.07 18505.6 2259.07 18505.6 2266.07 18499 2273.07 18505.6 2280.07 18512.6 2287.07 18505.6 2294.08 18512.6 2301.08 18512.6 2308.08 18512.6 2314.08 18519.6 2321.08 18512.6 2328.08 18512.6 2335.08 18519.6 2342.08 18519.6 2349.08 18519.6 2356.08 18519.6 2363.08 18519.6 2370.08 18519.6 2377.08 18519.6 2384.08 18526.6 2391.08 18512.6 2397.08 18526.6 2404.08 18519.6 2411.08 18526.6 2418.08 18533.6 2425.08 18526.6 2432.08 18526.6 2439.08 18526.6 2446.08 18519.6 2453.08 18526.6 2460.08 18533.6 2467.08 18547.6 2474.08 18547.6 2480.08 18526.6 2487.08 18533.6 2494.08 18533.6 2501.08 18533.6 2508.08 18533.6 2515.08 18533.6 2522.08 18533.6 2529.08 18533.6 2536.08 18533.6 2543.08 18533.6 2550.08 18533.6 2556.08 18533.6 2563.08 18533.6 2570.08 18533.6 2577.08 18540.6 2584.08 18540.6 2591.08 18547.6 2598.09 18540.6 2605.09 18533.6 2612.09 18533.6 2619.09 18533.6 2626.09 18540.6 2633.09 18533.6 2639.09 18540.6 2646.09 18533.6 2653.09 18540.6 2660.09 18533.6 2667.09 18533.6 2674.09 18540.6 2681.09 18540.6 2688.09 18540.6 2695.09 18547.6 2702.09 18540.6 2709.09 18547.6 2716.09 18547.6 2722.09 18540.6 2729.09 18540.6 2736.09 18540.6 2743.09 18547.6 2750.09 18547.6 2757.09 18540.6 2764.09 18547.6 2771.09 18554.6 2778.09 18547.6 2785.09 18547.6 2792.09 18547.6 2798.09 18554.6 2805.09 18547.6 2812.09 18547.6 2819.09 18547.6 2826.09 18560.6 2833.09 18560.6 2840.09 18547.6 2847.09 18554.6 2854.09 18547.6 2861.09 18554.6 2868.09 18554.6 2875.09 18547.6 2881.09 18547.6 2888.09 18547.6 2895.09 18554.6 2902.1 18554.6 2909.1 18560.6 2916.1 18560.6 2923.1 18560.6 2930.1 18560.6 2937.1 18560.6 2944.1 18560.6 2951.1 18560.6 2958.1 18560.6 2964.1 18560.6 2971.1 18560.6 2978.1 18560.6 2985.1 18560.6 2992.1 18560.6 2999.1 18560.6 3006.1 18560.6 3013.1 18560.6 3020.1 18560.6 3027.1 18560.6 3034.1 18560.6 3041.1 18560.6 3047.1 18560.6 3054.1 18560.6 3061.1 18560.6 3068.1 18560.6 3075.1 18560.6 3082.1 18560.6 3089.1 18560.6 3096.1 18560.6 3103.1 18567.6 3110.1 18567.6 3117.1 18567.6 3123.1 18567.6 3130.1 18567.6 3137.1 18567.6 3144.1 18567.6 3151.1 18575 3158.1 18575 3165.1 18575 3172.1 18567.6 3179.1 18567.6 3186.1 18575 3193.1 18575 3200.1 18575 3206.11 18575 3213.11 18567.6 3220.11 18567.6 3227.11 18567.6 3234.11 18567.6 3241.11 18567.6 3248.11 18567.6 3255.11 18567.6 3262.11 18567.6 3269.11 18567.6 3276.11 18575 3283.11 18575 3289.11 18575 3296.11 18575 3303.11 18567.6 3310.11 18575 3317.11 18575 3324.11 18575 3331.11 18575 3338.11 18575 3345.11 18567.6 3352.11 18575 3359.11 18567.6 3365.11 18567.6 3372.11 18575 3379.11 18575 3386.11 18575 3393.11 18575 3400.11 18575 3407.11 18575 3414.11 18575 3421.11 18575 3428.11 18575 3435.11 18575 3442.11 18575 3448.11 18567.6 3455.11 18575 3462.11 18575 3469.11 18575 3476.11 18575 3483.11 18575 3490.11 18575 3497.11 18575 3504.11 18575 3511.12 18575 3518.12 18575 3525.12 18575 3531.12 18575 3538.12 18575 3545.12 18575 3552.12 18575 3559.12 18567.6 3566.12 18567.6 3573.12 18567.6 3580.12 18567.6 3587.12 18567.6 3594.12 18567.6 3601.12 18567.6 3608.12 18567.6 3614.12 18567.6 3621.12 18567.6 3628.12 18567.6 3635.12 18567.6 3642.12 18567.6 3649.12 18567.6 3656.12 18567.6 3663.12 18567.6 3670.12 18567.6 3677.12 18567.6 3684.12 18567.6 3690.12 18567.6 3697.12 18567.6 3704.12 18567.6 3711.12 18567.6 3718.12 18567.6 3725.12 18567.6 3732.12 18567.6 3739.12 18567.6 3746.12 18567.6 3753.12 18567.6 3760.12 18575 3767.12 18567.6 3773.12 18567.6 3780.12 18575 3787.12 18567.6 3794.12 18575 3801.12 18575 3808.12 18575 3815.13 18567.6 3822.13 18567.6 3829.13 18575 3836.13 18575 3843.13 18575 3850.13 18575 3856.13 18575 3863.13 18575 3870.13 18575 3877.13 18567.6 3884.13 18575 3891.13 18575 3898.13 18575 3905.13 18575 3912.13 18575 3919.13 18575 3926.13 18575 3933.13 18575 3939.13 18575 3946.13 18575 3953.13 18575 3960.13 18575 3967.13 18575 3974.13 18575 3981.13 18575 3988.13 18575 3995.13 18575 4002.13 18575 4009.13 18575 4015.13 18575 4023 18575" stroke="#EA60C3" stroke-width="10.3125" stroke-linecap="round" stroke-linejoin="round" stroke-miterlimit="10" fill="none"/></g><g clip-path="url(#clip7)"><path d="M2232 18505.6 2238.07 18492.6 2245.07 18492.6 2252.07 18492.6 2259.07 18492.6 2266.07 18485.6 2273.07 18492.6 2280.07 18492.6 2287.07 18492.6 2294.08 18499.6 2301.08 18492.6 2308.08 18485.6 2314.08 18485.6 2321.08 18485.6 2328.08 18485.6 2335.08 18485.6 2342.08 18485.6 2349.08 18485.6 2356.08 18485.6 2363.08 18478.6 2370.08 18485.6 2377.08 18492.6 2384.08 18478.6 2391.08 18485.6 2397.08 18485.6 2404.08 18478.6 2411.08 18485.6 2418.08 18485.6 2425.08 18478.6 2432.08 18485.6 2439.08 18478.6 2446.08 18478.6 2453.08 18478.6 2460.08 18485.6 2467.08 18505.6 2474.08 18512.6 2480.08 18485.6 2487.08 18478.6 2494.08 18478.6 2501.08 18492.6 2508.08 18499.6 2515.08 18485.6 2522.08 18478.6 2529.08 18485.6 2536.08 18485.6 2543.08 18485.6 2550.08 18485.6 2556.08 18492.6 2563.08 18478.6 2570.08 18464.6 2577.08 18478.6 2584.08 18471.6 2591.08 18499.6 2598.09 18478.6 2605.09 18464.6 2612.09 18464.6 2619.09 18464.6 2626.09 18471.6 2633.09 18464.6 2639.09 18464.6 2646.09 18457.6 2653.09 18457.6 2660.09 18451.6 2667.09 18457.6 2674.09 18457.6 2681.09 18464.6 2688.09 18457.6 2695.09 18478.6 2702.09 18451.6 2709.09 18464.6 2716.09 18457.6 2722.09 18457.6 2729.09 18457.6 2736.09 18464.6 2743.09 18471.6 2750.09 18457.6 2757.09 18457.6 2764.09 18464.6 2771.09 18471.6 2778.09 18464.6 2785.09 18464.6 2792.09 18464.6 2798.09 18478.6 2805.09 18464.6 2812.09 18471.6 2819.09 18471.6 2826.09 18499.6 2833.09 18505.6 2840.09 18478.6 2847.09 18471.6 2854.09 18478.6 2861.09 18478.6 2868.09 18464.6 2875.09 18457.6 2881.09 18451.6 2888.09 18457.6 2895.09 18457.6 2902.1 18464.6 2909.1 18478.6 2916.1 18478.6 2923.1 18471.6 2930.1 18471.6 2937.1 18471.6 2944.1 18464.6 2951.1 18471.6 2958.1 18464.6 2964.1 18464.6 2971.1 18464.6 2978.1 18464.6 2985.1 18464.6 2992.1 18464.6 2999.1 18464.6 3006.1 18471.6 3013.1 18457.6 3020.1 18451.6 3027.1 18451.6 3034.1 18451.6 3041.1 18464.6 3047.1 18457.6 3054.1 18471.6 3061.1 18457.6 3068.1 18464.6 3075.1 18471.6 3082.1 18464.6 3089.1 18457.6 3096.1 18464.6 3103.1 18499.6 3110.1 18499.6 3117.1 18505.6 3123.1 18505.6 3130.1 18505.6 3137.1 18512.6 3144.1 18499.6 3151.1 18499.6 3158.1 18505.6 3165.1 18505.6 3172.1 18505.6 3179.1 18505.6 3186.1 18512.6 3193.1 18527 3200.1 18512.6 3206.11 18505.6 3213.11 18505.6 3220.11 18505.6 3227.11 18505.6 3234.11 18512.6 3241.11 18505.6 3248.11 18505.6 3255.11 18499.6 3262.11 18499.6 3269.11 18499.6 3276.11 18499.6 3283.11 18505.6 3289.11 18505.6 3296.11 18499.6 3303.11 18499.6 3310.11 18499.6 3317.11 18512.6 3324.11 18505.6 3331.11 18492.6 3338.11 18505.6 3345.11 18499.6 3352.11 18499.6 3359.11 18492.6 3365.11 18499.6 3372.11 18505.6 3379.11 18499.6 3386.11 18499.6 3393.11 18499.6 3400.11 18499.6 3407.11 18499.6 3414.11 18499.6 3421.11 18505.6 3428.11 18505.6 3435.11 18492.6 3442.11 18492.6 3448.11 18492.6 3455.11 18499.6 3462.11 18499.6 3469.11 18499.6 3476.11 18499.6 3483.11 18499.6 3490.11 18492.6 3497.11 18485.6 3504.11 18485.6 3511.12 18492.6 3518.12 18492.6 3525.12 18492.6 3531.12 18492.6 3538.12 18485.6 3545.12 18499.6 3552.12 18512.6 3559.12 18485.6 3566.12 18464.6 3573.12 18464.6 3580.12 18451.6 3587.12 18485.6 3594.12 18451.6 3601.12 18424 3608.12 18444.6 3614.12 18444.6 3621.12 18437.6 3628.12 18437.6 3635.12 18437.6 3642.12 18424 3649.12 18437.6 3656.12 18437.6 3663.12 18430.6 3670.12 18437.6 3677.12 18451.6 3684.12 18437.6 3690.12 18444.6 3697.12 18451.6 3704.12 18451.6 3711.12 18451.6 3718.12 18451.6 3725.12 18444.6 3732.12 18444.6 3739.12 18444.6 3746.12 18444.6 3753.12 18437.6 3760.12 18457.6 3767.12 18444.6 3773.12 18451.6 3780.12 18451.6 3787.12 18444.6 3794.12 18457.6 3801.12 18457.6 3808.12 18457.6 3815.13 18457.6 3822.13 18451.6 3829.13 18471.6 3836.13 18457.6 3843.13 18457.6 3850.13 18457.6 3856.13 18457.6 3863.13 18451.6 3870.13 18444.6 3877.13 18457.6 3884.13 18464.6 3891.13 18464.6 3898.13 18457.6 3905.13 18471.6 3912.13 18492.6 3919.13 18478.6 3926.13 18457.6 3933.13 18464.6 3939.13 18471.6 3946.13 18451.6 3953.13 18451.6 3960.13 18451.6 3967.13 18457.6 3974.13 18464.6 3981.13 18457.6 3988.13 18457.6 3995.13 18457.6 4002.13 18471.6 4009.13 18471.6 4015.13 18471.6 4023 18471.6" stroke="#70AD47" stroke-width="10.3125" stroke-linecap="round" stroke-linejoin="round" stroke-miterlimit="10" fill="none"/></g><g clip-path="url(#clip8)"><path d="M2232 18589 2238.07 18589 2245.07 18589 2252.07 18589 2259.07 18589 2266.07 18589 2273.07 18589 2280.07 18589 2287.07 18589 2294.08 18589 2301.08 18589 2308.08 18589 2314.08 18589 2321.08 18589 2328.08 18589 2335.08 18589 2342.08 18589 2349.08 18589 2356.08 18589 2363.08 18589 2370.08 18589 2377.08 18589 2384.08 18589 2391.08 18589 2397.08 18589 2404.08 18589 2411.08 18589 2418.08 18589 2425.08 18589 2432.08 18589 2439.08 18589 2446.08 18589 2453.08 18589 2460.08 18589 2467.08 18589 2474.08 18589 2480.08 18589 2487.08 18589 2494.08 18589 2501.08 18589 2508.08 18589 2515.08 18589 2522.08 18589 2529.08 18589 2536.08 18589 2543.08 18589 2550.08 18589 2556.08 18589 2563.08 18589 2570.08 18589 2577.08 18589 2584.08 18589 2591.08 18589 2598.09 18589 2605.09 18589 2612.09 18589 2619.09 18589 2626.09 18589 2633.09 18589 2639.09 18589 2646.09 18589 2653.09 18589 2660.09 18589 2667.09 18589 2674.09 18589 2681.09 18589 2688.09 18589 2695.09 18589 2702.09 18589 2709.09 18589 2716.09 18589 2722.09 18589 2729.09 18589 2736.09 18589 2743.09 18589 2750.09 18589 2757.09 18589 2764.09 18589 2771.09 18589 2778.09 18589 2785.09 18589 2792.09 18589 2798.09 18589 2805.09 18589 2812.09 18589 2819.09 18589 2826.09 18589 2833.09 18589 2840.09 18589 2847.09 18589 2854.09 18589 2861.09 18589 2868.09 18589 2875.09 18589 2881.09 18589 2888.09 18589 2895.09 18589 2902.1 18589 2909.1 18589 2916.1 18589 2923.1 18589 2930.1 18589 2937.1 18589 2944.1 18589 2951.1 18589 2958.1 18589 2964.1 18589 2971.1 18589 2978.1 18589 2985.1 18589 2992.1 18589 2999.1 18589 3006.1 18589 3013.1 18589 3020.1 18589 3027.1 18589 3034.1 18589 3041.1 18589 3047.1 18589 3054.1 18589 3061.1 18589 3068.1 18589 3075.1 18589 3082.1 18589 3089.1 18589 3096.1 18589 3103.1 18589 3110.1 18589 3117.1 18589 3123.1 18589 3130.1 18589 3137.1 18589 3144.1 18589 3151.1 18589 3158.1 18589 3165.1 18589 3172.1 18589 3179.1 18589 3186.1 18589 3193.1 18589 3200.1 18589 3206.11 18589 3213.11 18589 3220.11 18589 3227.11 18589 3234.11 18589 3241.11 18589 3248.11 18589 3255.11 18589 3262.11 18589 3269.11 18589 3276.11 18589 3283.11 18589 3289.11 18589 3296.11 18589 3303.11 18589 3310.11 18589 3317.11 18589 3324.11 18589 3331.11 18589 3338.11 18589 3345.11 18589 3352.11 18589 3359.11 18589 3365.11 18589 3372.11 18589 3379.11 18589 3386.11 18589 3393.11 18589 3400.11 18589 3407.11 18589 3414.11 18589 3421.11 18589 3428.11 18589 3435.11 18589 3442.11 18589 3448.11 18589 3455.11 18589 3462.11 18589 3469.11 18589 3476.11 18589 3483.11 18589 3490.11 18589 3497.11 18589 3504.11 18589 3511.12 18589 3518.12 18589 3525.12 18589 3531.12 18589 3538.12 18589 3545.12 18589 3552.12 18589 3559.12 18589 3566.12 18589 3573.12 18589 3580.12 18589 3587.12 18589 3594.12 18589 3601.12 18589 3608.12 18589 3614.12 18589 3621.12 18589 3628.12 18589 3635.12 18589 3642.12 18589 3649.12 18589 3656.12 18589 3663.12 18589 3670.12 18589 3677.12 18589 3684.12 18589 3690.12 18589 3697.12 18589 3704.12 18589 3711.12 18589 3718.12 18589 3725.12 18589 3732.12 18589 3739.12 18589 3746.12 18589 3753.12 18589 3760.12 18589 3767.12 18589 3773.12 18589 3780.12 18589 3787.12 18589 3794.12 18589 3801.12 18589 3808.12 18589 3815.13 18589 3822.13 18589 3829.13 18589 3836.13 18589 3843.13 18589 3850.13 18589 3856.13 18589 3863.13 18589 3870.13 18589 3877.13 18589 3884.13 18589 3891.13 18589 3898.13 18589 3905.13 18589 3912.13 18589 3919.13 18589 3926.13 18589 3933.13 18589 3939.13 18589 3946.13 18589 3953.13 18589 3960.13 18589 3967.13 18589 3974.13 18589 3981.13 18589 3988.13 18589 3995.13 18589 4002.13 18589 4009.13 18589 4015.13 18589 4023 18589" stroke="#7030A0" stroke-width="10.3125" stroke-linecap="round" stroke-linejoin="round" stroke-miterlimit="10" fill="none"/></g><g clip-path="url(#clip9)"><text fill="#595959" font-family="Calibri,Calibri_MSFontService,sans-serif" font-weight="400" font-size="41" transform="matrix(1 0 0 1 2171.9 18600)">0</text></g><g clip-path="url(#clip10)"><text fill="#595959" font-family="Calibri,Calibri_MSFontService,sans-serif" font-weight="400" font-size="41" transform="matrix(1 0 0 1 2151 18463)">20</text></g><g clip-path="url(#clip11)"><text fill="#595959" font-family="Calibri,Calibri_MSFontService,sans-serif" font-weight="400" font-size="41" transform="matrix(1 0 0 1 2151 18325)">40</text></g><g clip-path="url(#clip12)"><text fill="#595959" font-family="Calibri,Calibri_MSFontService,sans-serif" font-weight="400" font-size="41" transform="matrix(1 0 0 1 2151 18188)">60</text></g><g clip-path="url(#clip13)"><text fill="#595959" font-family="Calibri,Calibri_MSFontService,sans-serif" font-weight="400" font-size="41" transform="matrix(1 0 0 1 2151 18050)">80</text></g><g clip-path="url(#clip14)"><text fill="#595959" font-family="Calibri,Calibri_MSFontService,sans-serif" font-weight="400" font-size="41" transform="matrix(1 0 0 1 2130.1 17913)">100</text></g><g clip-path="url(#clip15)"><text fill="#595959" font-family="Calibri,Calibri_MSFontService,sans-serif" font-weight="400" font-size="41" transform="matrix(1 0 0 1 2130.1 17776)">120</text></g><g clip-path="url(#clip16)"><text fill="#595959" font-family="Calibri,Calibri_MSFontService,sans-serif" font-weight="400" font-size="41" transform="matrix(1 0 0 1 2137.56 18654)">29.04.2018</text></g><g clip-path="url(#clip17)"><text fill="#595959" font-family="Calibri,Calibri_MSFontService,sans-serif" font-weight="400" font-size="41" transform="matrix(1 0 0 1 2498.12 18654)">29.04.2019</text></g><g clip-path="url(#clip18)"><text fill="#595959" font-family="Calibri,Calibri_MSFontService,sans-serif" font-weight="400" font-size="41" transform="matrix(1 0 0 1 2859.68 18654)">29.04.2020</text></g><g clip-path="url(#clip19)"><text fill="#595959" font-family="Calibri,Calibri_MSFontService,sans-serif" font-weight="400" font-size="41" transform="matrix(1 0 0 1 3220.24 18654)">29.04.2021</text></g><g clip-path="url(#clip20)"><text fill="#595959" font-family="Calibri,Calibri_MSFontService,sans-serif" font-weight="400" font-size="41" transform="matrix(1 0 0 1 3580.8 18654)">29.04.2022</text></g><g clip-path="url(#clip21)"><text fill="#595959" font-family="Calibri,Calibri_MSFontService,sans-serif" font-weight="700" font-size="64" transform="matrix(1 0 0 1 2586.04 17611)">Google Trends JavaScript Frameworks</text></g><g clip-path="url(#clip22)"><path d="M2347 18734 2435 18734" stroke="#4472C4" stroke-width="10.3125" stroke-linecap="round" stroke-linejoin="round" stroke-miterlimit="10" fill="none" fill-rule="evenodd"/></g><g clip-path="url(#clip23)"><text fill="#595959" font-family="Calibri,Calibri_MSFontService,sans-serif" font-weight="400" font-size="41" transform="matrix(1 0 0 1 2444.05 18745)">React:</text></g><g clip-path="url(#clip24)"><path d="M2615 18734 2703 18734" stroke="#ED7D31" stroke-width="10.3125" stroke-linecap="round" stroke-linejoin="round" stroke-miterlimit="10" fill="none" fill-rule="evenodd"/></g><g clip-path="url(#clip25)"><text fill="#595959" font-family="Calibri,Calibri_MSFontService,sans-serif" font-weight="400" font-size="41" transform="matrix(1 0 0 1 2712.74 18745)">Angular:</text></g><g clip-path="url(#clip26)"><path d="M2920 18734 3008 18734" stroke="#EA60C3" stroke-width="10.3125" stroke-linecap="round" stroke-linejoin="round" stroke-miterlimit="10" fill="none" fill-rule="evenodd"/></g><g clip-path="url(#clip27)"><text fill="#595959" font-family="Calibri,Calibri_MSFontService,sans-serif" font-weight="400" font-size="41" transform="matrix(1 0 0 1 3017.76 18745)">AngularJS:</text></g><g clip-path="url(#clip28)"><path d="M3258 18734 3346 18734" stroke="#70AD47" stroke-width="10.3125" stroke-linecap="round" stroke-linejoin="round" stroke-miterlimit="10" fill="none" fill-rule="evenodd"/></g><g clip-path="url(#clip29)"><text fill="#595959" font-family="Calibri,Calibri_MSFontService,sans-serif" font-weight="400" font-size="41" transform="matrix(1 0 0 1 3354.88 18745)">Vue.js:</text></g><g clip-path="url(#clip30)"><path d="M3534 18734 3622 18734" stroke="#7030A0" stroke-width="10.3125" stroke-linecap="round" stroke-linejoin="round" stroke-miterlimit="10" fill="none" fill-rule="evenodd"/></g><g clip-path="url(#clip31)"><text fill="#595959" font-family="Calibri,Calibri_MSFontService,sans-serif" font-weight="400" font-size="41" transform="matrix(1 0 0 1 3631.66 18745)">Backbone.js:</text></g><rect x="2100.5" y="17516.5" width="1973" height="1284" stroke="#D9D9D9" stroke-width="3.4375" stroke-linejoin="round" stroke-miterlimit="10" fill="none"/></g></svg>