
            <svg id="trend-chart" width="660" height="400" title="Stack Overflow Trends Chart" version="1.1" xmlns="http://www.w3.org/2000/svg"><g></g><g class="chart-area" transform="translate(100, 20)"><g transform="translate(0,300)" fill="none" font-size="10" font-family="sans-serif" text-anchor="middle"><path class="domain" stroke="#000" d="M0.5,6V0.5H410.5V6"></path><g class="tick" opacity="1" transform="translate(39.886464112174394,0)"><line stroke="#000" y2="6" x1="0.5" x2="0.5"></line><text fill="#000" y="9" x="0.5" dy="0.71em" style="font-size: 12px;">2010</text></g><g class="tick" opacity="1" transform="translate(96.09259708452986,0)"><line stroke="#000" y2="6" x1="0.5" x2="0.5"></line><text fill="#000" y="9" x="0.5" dy="0.71em" style="font-size: 12px;">2012</text></g><g class="tick" opacity="1" transform="translate(152.37572475958717,0)"><line stroke="#000" y2="6" x1="0.5" x2="0.5"></line><text fill="#000" y="9" x="0.5" dy="0.71em" style="font-size: 12px;">2014</text></g><g class="tick" opacity="1" transform="translate(208.58185773194262,0)"><line stroke="#000" y2="6" x1="0.5" x2="0.5"></line><text fill="#000" y="9" x="0.5" dy="0.71em" style="font-size: 12px;">2016</text></g><g class="tick" opacity="1" transform="translate(264.86498540699995,0)"><line stroke="#000" y2="6" x1="0.5" x2="0.5"></line><text fill="#000" y="9" x="0.5" dy="0.71em" style="font-size: 12px;">2018</text></g><g class="tick" opacity="1" transform="translate(321.0711183793554,0)"><line stroke="#000" y2="6" x1="0.5" x2="0.5"></line><text fill="#000" y="9" x="0.5" dy="0.71em" style="font-size: 12px;">2020</text></g><g class="tick" opacity="1" transform="translate(377.3542460544127,0)"><line stroke="#000" y2="6" x1="0.5" x2="0.5"></line><text fill="#000" y="9" x="0.5" dy="0.71em" style="font-size: 12px;">2022</text></g></g><g class="grid-lines" transform="translate(0,300)" fill="none" font-size="10" font-family="sans-serif" text-anchor="middle"><path class="domain" stroke="#000" d="M0.5,-300V0.5H410.5V-300"></path><g class="tick" opacity="1" transform="translate(39.886464112174394,0)"><line stroke="#000" y2="-300" x1="0.5" x2="0.5" style="stroke: #ccc; fill: none;"></line></g><g class="tick" opacity="1" transform="translate(96.09259708452986,0)"><line stroke="#000" y2="-300" x1="0.5" x2="0.5" style="stroke: #ccc; fill: none;"></line></g><g class="tick" opacity="1" transform="translate(152.37572475958717,0)"><line stroke="#000" y2="-300" x1="0.5" x2="0.5" style="stroke: #ccc; fill: none;"></line></g><g class="tick" opacity="1" transform="translate(208.58185773194262,0)"><line stroke="#000" y2="-300" x1="0.5" x2="0.5" style="stroke: #ccc; fill: none;"></line></g><g class="tick" opacity="1" transform="translate(264.86498540699995,0)"><line stroke="#000" y2="-300" x1="0.5" x2="0.5" style="stroke: #ccc; fill: none;"></line></g><g class="tick" opacity="1" transform="translate(321.0711183793554,0)"><line stroke="#000" y2="-300" x1="0.5" x2="0.5" style="stroke: #ccc; fill: none;"></line></g><g class="tick" opacity="1" transform="translate(377.3542460544127,0)"><line stroke="#000" y2="-300" x1="0.5" x2="0.5" style="stroke: #ccc; fill: none;"></line></g></g><text x="205" y="360" class="axis-label x-axis-label" style="text-anchor: middle; font-weight: bold;">Year</text><g fill="none" font-size="10" font-family="sans-serif" text-anchor="end"><path class="domain" stroke="#000" d="M-6,300.5H0.5V0.5H-6"></path><g class="tick" opacity="1" transform="translate(0,300)"><line stroke="#000" x2="-6" y1="0.5" y2="0.5"></line><text fill="#000" x="-9" y="0.5" dy="0.32em" style="font-size: 12px;">0.00%</text></g><g class="tick" opacity="1" transform="translate(0,278.57142857142856)"><line stroke="#000" x2="-6" y1="0.5" y2="0.5"></line><text fill="#000" x="-9" y="0.5" dy="0.32em" style="font-size: 12px;">0.50%</text></g><g class="tick" opacity="1" transform="translate(0,257.14285714285717)"><line stroke="#000" x2="-6" y1="0.5" y2="0.5"></line><text fill="#000" x="-9" y="0.5" dy="0.32em" style="font-size: 12px;">1.00%</text></g><g class="tick" opacity="1" transform="translate(0,235.71428571428572)"><line stroke="#000" x2="-6" y1="0.5" y2="0.5"></line><text fill="#000" x="-9" y="0.5" dy="0.32em" style="font-size: 12px;">1.50%</text></g><g class="tick" opacity="1" transform="translate(0,214.28571428571428)"><line stroke="#000" x2="-6" y1="0.5" y2="0.5"></line><text fill="#000" x="-9" y="0.5" dy="0.32em" style="font-size: 12px;">2.00%</text></g><g class="tick" opacity="1" transform="translate(0,192.85714285714286)"><line stroke="#000" x2="-6" y1="0.5" y2="0.5"></line><text fill="#000" x="-9" y="0.5" dy="0.32em" style="font-size: 12px;">2.50%</text></g><g class="tick" opacity="1" transform="translate(0,171.42857142857144)"><line stroke="#000" x2="-6" y1="0.5" y2="0.5"></line><text fill="#000" x="-9" y="0.5" dy="0.32em" style="font-size: 12px;">3.00%</text></g><g class="tick" opacity="1" transform="translate(0,150)"><line stroke="#000" x2="-6" y1="0.5" y2="0.5"></line><text fill="#000" x="-9" y="0.5" dy="0.32em" style="font-size: 12px;">3.50%</text></g><g class="tick" opacity="1" transform="translate(0,128.57142857142858)"><line stroke="#000" x2="-6" y1="0.5" y2="0.5"></line><text fill="#000" x="-9" y="0.5" dy="0.32em" style="font-size: 12px;">4.00%</text></g><g class="tick" opacity="1" transform="translate(0,107.14285714285717)"><line stroke="#000" x2="-6" y1="0.5" y2="0.5"></line><text fill="#000" x="-9" y="0.5" dy="0.32em" style="font-size: 12px;">4.50%</text></g><g class="tick" opacity="1" transform="translate(0,85.71428571428572)"><line stroke="#000" x2="-6" y1="0.5" y2="0.5"></line><text fill="#000" x="-9" y="0.5" dy="0.32em" style="font-size: 12px;">5.00%</text></g><g class="tick" opacity="1" transform="translate(0,64.28571428571428)"><line stroke="#000" x2="-6" y1="0.5" y2="0.5"></line><text fill="#000" x="-9" y="0.5" dy="0.32em" style="font-size: 12px;">5.50%</text></g><g class="tick" opacity="1" transform="translate(0,42.85714285714289)"><line stroke="#000" x2="-6" y1="0.5" y2="0.5"></line><text fill="#000" x="-9" y="0.5" dy="0.32em" style="font-size: 12px;">6.00%</text></g><g class="tick" opacity="1" transform="translate(0,21.428571428571445)"><line stroke="#000" x2="-6" y1="0.5" y2="0.5"></line><text fill="#000" x="-9" y="0.5" dy="0.32em" style="font-size: 12px;">6.50%</text></g><g class="tick" opacity="1" transform="translate(0,0)"><line stroke="#000" x2="-6" y1="0.5" y2="0.5"></line><text fill="#000" x="-9" y="0.5" dy="0.32em" style="font-size: 12px;">7.00%</text></g></g><g class="grid-lines" fill="none" font-size="10" font-family="sans-serif" text-anchor="end"><path class="domain" stroke="#000" d="M410,300.5H0.5V0.5H410"></path><g class="tick" opacity="1" transform="translate(0,300)"><line stroke="#000" x2="410" y1="0.5" y2="0.5" style="stroke: #ccc; fill: none;"></line></g><g class="tick" opacity="1" transform="translate(0,278.57142857142856)"><line stroke="#000" x2="410" y1="0.5" y2="0.5" style="stroke: #ccc; fill: none;"></line></g><g class="tick" opacity="1" transform="translate(0,257.14285714285717)"><line stroke="#000" x2="410" y1="0.5" y2="0.5" style="stroke: #ccc; fill: none;"></line></g><g class="tick" opacity="1" transform="translate(0,235.71428571428572)"><line stroke="#000" x2="410" y1="0.5" y2="0.5" style="stroke: #ccc; fill: none;"></line></g><g class="tick" opacity="1" transform="translate(0,214.28571428571428)"><line stroke="#000" x2="410" y1="0.5" y2="0.5" style="stroke: #ccc; fill: none;"></line></g><g class="tick" opacity="1" transform="translate(0,192.85714285714286)"><line stroke="#000" x2="410" y1="0.5" y2="0.5" style="stroke: #ccc; fill: none;"></line></g><g class="tick" opacity="1" transform="translate(0,171.42857142857144)"><line stroke="#000" x2="410" y1="0.5" y2="0.5" style="stroke: #ccc; fill: none;"></line></g><g class="tick" opacity="1" transform="translate(0,150)"><line stroke="#000" x2="410" y1="0.5" y2="0.5" style="stroke: #ccc; fill: none;"></line></g><g class="tick" opacity="1" transform="translate(0,128.57142857142858)"><line stroke="#000" x2="410" y1="0.5" y2="0.5" style="stroke: #ccc; fill: none;"></line></g><g class="tick" opacity="1" transform="translate(0,107.14285714285717)"><line stroke="#000" x2="410" y1="0.5" y2="0.5" style="stroke: #ccc; fill: none;"></line></g><g class="tick" opacity="1" transform="translate(0,85.71428571428572)"><line stroke="#000" x2="410" y1="0.5" y2="0.5" style="stroke: #ccc; fill: none;"></line></g><g class="tick" opacity="1" transform="translate(0,64.28571428571428)"><line stroke="#000" x2="410" y1="0.5" y2="0.5" style="stroke: #ccc; fill: none;"></line></g><g class="tick" opacity="1" transform="translate(0,42.85714285714289)"><line stroke="#000" x2="410" y1="0.5" y2="0.5" style="stroke: #ccc; fill: none;"></line></g><g class="tick" opacity="1" transform="translate(0,21.428571428571445)"><line stroke="#000" x2="410" y1="0.5" y2="0.5" style="stroke: #ccc; fill: none;"></line></g><g class="tick" opacity="1" transform="translate(0,0)"><line stroke="#000" x2="410" y1="0.5" y2="0.5" style="stroke: #ccc; fill: none;"></line></g></g><g class="lines"><path class="line" d="M2.3868357837575607,300L4.696676864813264,300L7.086720761183402,300L9.396561842239105,300L11.783397625996667,300L14.170233409754228,300L16.326085085406216,300L18.7097127565512,300L21.019553837606903,300L23.406389621364465,300L25.716230702420173,300L28.103066486177728,300L30.48990226993529,300L32.799743350990994,300L35.18978724736113,300L37.49962832841683,300L39.886464112174394,300L42.273299895931956,300L44.42915157158395,300L46.81277924272893,300L49.12262032378463,300L51.5094561075422,300L53.81929718859789,300L56.206132972355455,300L58.59296875611302,300L60.902809837168725,300L63.29285373353886,300L65.60269481459457,300L67.98953059835213,300L70.37636638210968,300L72.53221805776167,300L74.91584572890666,300L77.22568680996235,300L79.61252259371992,300L81.92236367477562,300L84.30919945853319,300L86.69603524229075,300L89.00587632334646,300L91.39592021971659,300L93.7057613007723,300L96.09259708452986,300L98.47943286828742,299.9652652347L100.71227924664126,300L103.09590691778625,300L105.40574799884195,300L107.79258378259951,300L110.10242486365522,300L112.48926064741278,300L114.87609643117034,300L117.18593751222603,300L119.57598140859618,300L121.88582248965187,300L124.27265827340943,300L126.659494057167,300L128.815345732819,300L131.19897340396398,299.9748219069857L133.50881448501968,299.9740759368L135.89565026877725,299.94544661044284L138.20549134983295,299.95111175935716L140.59232713359052,299.97464509474287L142.97916291734808,299.76552037975716L145.28900399840376,299.8829244535286L147.6790478947739,299.8286556321L149.9888889758296,299.42636379835716L152.37572475958717,298.92645860777145L154.76256054334473,298.92062539427144L156.91841221899674,299.06465843061426L159.3020398901417,299.2665710493L161.6118809711974,298.4055118593429L163.99871675495496,298.16480413495714L166.30855783601066,298.0249153274143L168.69539361976823,297.9915504174L171.0822294035258,297.50402778852856L173.3920704845815,296.65737883624286L175.78211438095164,295.9382755867286L178.09195546200735,295.2797139692143L180.4787912457649,294.8280029421L182.86562702952247,291.5436293205857L185.02147870517445,291.2957117176286L187.40510637631942,289.6072747560857L189.71494745737513,289.7031660633857L192.1017832411327,287.9148803205857L194.4116243221884,285.79784943072855L196.79846010594596,285.5818416858L199.18529588970353,281.78544713897145L201.49513697075923,280.74695333858574L203.88518086712935,276.89263228607143L206.19502194818506,274.48562281122855L208.58185773194262,272.2775804673857L210.96869351570018,273.62157434091426L213.201539894054,268.7663903208L215.58516756519901,267.2173651287L217.89500864625475,264.8953288875857L220.28184443001228,260.8873052284286L222.59168551106796,255.27614352715716L224.97852129482555,251.6784785941286L227.3653570785831,253.1548379339143L229.6751981596388,253.2669519420857L232.06524205600894,251.31666480047144L234.37508313706468,245.97222876557143L236.7619189208222,244.72684645885715L239.1487547045798,243.8811694265143L241.30460638023175,244.06502342614286L243.68823405137672,236.15345784960002L245.99807513243246,229.94204366640002L248.38491091619002,226.21808167015715L250.6947519972457,219.98388280037142L253.0815877810033,219.5007206463L255.46842356476083,224.28680035397144L257.77826464581653,219.71172565080002L260.16830854218665,220.0394892024L262.4781496232424,215.5201448907L264.86498540699995,211.1734076571L267.2518211907575,207.69962102708573L269.4076728664095,204.7758227626286L271.7913005375545,202.01339896577144L274.10114161861014,198.79706233954286L276.48797740236773,192.09815080234284L278.79781848342344,186.87702902785713L281.18465426718103,178.72482804269998L283.57149005093856,177.63958145875716L285.8813311319943,181.6525858544572L288.2713750283644,181.09913630447147L290.5812161094201,172.1540944769143L292.9680518931777,169.09895184098573L295.3548876769352,166.32375991517142L297.5107393525872,163.85131973888573L299.89436702373223,168.59824910995715L302.2042081047879,157.11317284024287L304.59104388854547,155.21559810625718L306.9008849696012,152.83088355180004L309.2877207533587,140.3983751267143L311.6745565371163,142.65756489462856L313.984397618172,146.0374051427143L316.3744415145421,140.00733446018572L318.68428259559784,131.86410351527144L321.0711183793554,124.52631070710004L323.45795416311296,125.9717622450857L325.6908005414668,115.78075457241431L328.0744282126118,104.89114555778573L330.3842692936675,106.83705644970001L332.77110507742503,98.2478333265L335.08094615848074,88.01989232674288L337.46778194223833,86.32607588927144L339.85461772599587,87.00553216491431L342.1644588070516,93.16941588492858L344.5545027034217,92.96717115017148L346.86434378447746,86.82427301490006L349.251179568235,75.18873560301432L351.6380153519925,86.27369252370002L353.7938670276445,78.22629530451434L356.17749469878953,72.07264945949998L358.4873357798452,73.32352171148571L360.8741715636028,75.04750862318573L363.1840126446585,65.94066868114288L365.57084842841607,60.77640445058577L367.9576842121736,49.76830398518575L370.2675252932293,65.7289200852L372.6575691895994,65.9648512267286L374.96741027065514,54.5809251891429L377.3542460544127,41.43165564702855L379.74108183817026,51.630735980485724L381.89693351382226,49.714647992357186L384.28056118496727,26.270389773600016L386.5904022660229,30.85432067597145L388.9772380497805,34.68146732464288L391.2870791308362,27.117424923600026L393.67391491459375,36.265671147514354L396.06075069835134,37.05412896270002L398.37059177940705,49.434647934642925L400.76063567577717,54.85105648718579L403.0704767568329,45.01111288452856L405.45731254059046,46.33616660198575L407.844148324348,51.7621820410715L410,59.535121049871464" data-legend="reactjs" style="stroke: rgb(31, 119, 180); fill: none;"></path><path class="line" d="M2.3868357837575607,300L4.696676864813264,300L7.086720761183402,300L9.396561842239105,300L11.783397625996667,300L14.170233409754228,300L16.326085085406216,300L18.7097127565512,300L21.019553837606903,300L23.406389621364465,300L25.716230702420173,300L28.103066486177728,300L30.48990226993529,300L32.799743350990994,300L35.18978724736113,300L37.49962832841683,300L39.886464112174394,300L42.273299895931956,300L44.42915157158395,300L46.81277924272893,300L49.12262032378463,300L51.5094561075422,300L53.81929718859789,300L56.206132972355455,300L58.59296875611302,300L60.902809837168725,300L63.29285373353886,300L65.60269481459457,300L67.98953059835213,300L70.37636638210968,300L72.53221805776167,300L74.91584572890666,300L77.22568680996235,300L79.61252259371992,300L81.92236367477562,300L84.30919945853319,300L86.69603524229075,300L89.00587632334646,300L91.39592021971659,300L93.7057613007723,300L96.09259708452986,300L98.47943286828742,300L100.71227924664126,300L103.09590691778625,300L105.40574799884195,300L107.79258378259951,300L110.10242486365522,300L112.48926064741278,300L114.87609643117034,300L117.18593751222603,300L119.57598140859618,300L121.88582248965187,300L124.27265827340943,300L126.659494057167,300L128.815345732819,300L131.19897340396398,299.9748219069857L133.50881448501968,300L135.89565026877725,300L138.20549134983295,300L140.59232713359052,300L142.97916291734808,300L145.28900399840376,300L147.6790478947739,299.97552223315716L149.9888889758296,300L152.37572475958717,300L154.76256054334473,300L156.91841221899674,300L159.3020398901417,300L161.6118809711974,299.97546941322855L163.99871675495496,300L166.30855783601066,299.97561623862856L168.69539361976823,299.9735730318429L171.0822294035258,300L173.3920704845815,299.9750550659571L175.78211438095164,299.94825828775714L178.09195546200735,299.9722336116L180.4787912457649,299.9740100650714L182.86562702952247,299.92312390294285L185.02147870517445,299.52274137355715L187.40510637631942,299.6816232966857L189.71494745737513,299.04701988398574L192.1017832411327,298.62146923812855L194.4116243221884,298.58641114088573L196.79846010594596,298.28695148742855L199.18529588970353,298.12997257294285L201.49513697075923,297.1734395996571L203.88518086712935,294.57437068354284L206.19502194818506,289.10819030704283L208.58185773194262,278.2180989387L210.96869351570018,275.3419064491286L213.201539894054,270.5027817992143L215.58516756519901,266.49228004105714L217.89500864625475,257.20334308465715L220.28184443001228,248.73351045235717L222.59168551106796,242.6585875184143L224.97852129482555,236.92018141598572L227.3653570785831,226.84385030065715L229.6751981596388,216.53225806452858L232.06524205600894,219.0340067052L234.37508313706468,213.01155490294286L236.7619189208222,211.1760177697286L239.1487547045798,202.24302344837145L241.30460638023175,202.68817127339997L243.68823405137672,200.22009086322856L245.99807513243246,197.6272313575286L248.38491091619002,189.54569961677146L250.6947519972457,181.64934816844288L253.0815877810033,176.31074657652857L255.46842356476083,176.7490594827429L257.77826464581653,178.18067533765716L260.16830854218665,169.74712050784288L262.4781496232424,172.5355077529286L264.86498540699995,170.12250453724286L267.2518211907575,174.56542612294288L269.4076728664095,177.76933419068573L271.7913005375545,171.8124144794143L274.10114161861014,168.5189223292286L276.48797740236773,165.61417271974287L278.79781848342344,168.81104062812858L281.18465426718103,163.39402272287145L283.57149005093856,168.8522616816L285.8813311319943,170.93065128535716L288.2713750283644,174.7128594458143L290.5812161094201,171.06926164525714L292.9680518931777,173.20234174547144L295.3548876769352,169.7970266462143L297.5107393525872,172.4888252273143L299.89436702373223,178.08931994828572L302.2042081047879,175.84301025642858L304.59104388854547,169.19809172558573L306.9008849696012,176.7404702123143L309.2877207533587,179.59321087945716L311.6745565371163,173.13451808914283L313.984397618172,179.86877185598573L316.3744415145421,175.93838663335714L318.68428259559784,178.47214645748574L321.0711183793554,190.03333487708574L323.45795416311296,180.50499265422857L325.6908005414668,189.80162997707146L328.0744282126118,196.0967173890857L330.3842692936675,199.7150194502143L332.77110507742503,201.8346225647143L335.08094615848074,193.0574318300143L337.46778194223833,202.93123906735715L339.85461772599587,202.94232840501428L342.1644588070516,209.41993922622856L344.5545027034217,215.9871430496143L346.86434378447746,214.88481660167145L349.251179568235,217.94373373037143L351.6380153519925,219.6099508599857L353.7938670276445,214.01977205785715L356.17749469878953,220.7720461660286L358.4873357798452,215.67104921507143L360.8741715636028,213.24220332574288L363.1840126446585,212.24519703835716L365.57084842841607,213.1932752259L367.9576842121736,213.62854013460003L370.2675252932293,221.31602730137143L372.6575691895994,225.35960791140002L374.96741027065514,221.23348288842857L377.3542460544127,222.76201399465717L379.74108183817026,220.77028052322856L381.89693351382226,223.01591817162858L384.28056118496727,228.60922021667142L386.5904022660229,224.13097282787143L388.9772380497805,221.02101656708572L391.2870791308362,225.79058237215713L393.67391491459375,227.14920839875714L396.06075069835134,227.93108111335715L398.37059177940705,233.5731896390143L400.76063567577717,232.83031890698572L403.0704767568329,223.6748510540143L405.45731254059046,219.92780198764285L407.844148324348,220.71673346575716L410,226.65672573432857" data-legend="angular" style="stroke: rgb(255, 127, 14); fill: none;"></path><path class="line" d="M2.3868357837575607,300L4.696676864813264,300L7.086720761183402,300L9.396561842239105,300L11.783397625996667,300L14.170233409754228,300L16.326085085406216,300L18.7097127565512,300L21.019553837606903,300L23.406389621364465,300L25.716230702420173,300L28.103066486177728,300L30.48990226993529,300L32.799743350990994,300L35.18978724736113,300L37.49962832841683,300L39.886464112174394,300L42.273299895931956,300L44.42915157158395,300L46.81277924272893,300L49.12262032378463,300L51.5094561075422,300L53.81929718859789,300L56.206132972355455,300L58.59296875611302,300L60.902809837168725,300L63.29285373353886,300L65.60269481459457,300L67.98953059835213,300L70.37636638210968,300L72.53221805776167,300L74.91584572890666,300L77.22568680996235,300L79.61252259371992,300L81.92236367477562,300L84.30919945853319,300L86.69603524229075,300L89.00587632334646,300L91.39592021971659,300L93.7057613007723,300L96.09259708452986,300L98.47943286828742,300L100.71227924664126,300L103.09590691778625,300L105.40574799884195,300L107.79258378259951,300L110.10242486365522,300L112.48926064741278,300L114.87609643117034,300L117.18593751222603,300L119.57598140859618,300L121.88582248965187,300L124.27265827340943,300L126.659494057167,300L128.815345732819,300L131.19897340396398,300L133.50881448501968,300L135.89565026877725,300L138.20549134983295,300L140.59232713359052,300L142.97916291734808,300L145.28900399840376,300L147.6790478947739,300L149.9888889758296,300L152.37572475958717,300L154.76256054334473,300L156.91841221899674,299.9792146318286L159.3020398901417,300L161.6118809711974,299.90187765291427L163.99871675495496,300L166.30855783601066,299.9268487158429L168.69539361976823,300L171.0822294035258,299.9480005789286L173.3920704845815,299.9501101319143L175.78211438095164,299.9223874316143L178.09195546200735,299.91670083475714L180.4787912457649,299.8960402601571L182.86562702952247,299.97437463432857L185.02147870517445,299.9545467975L187.40510637631942,299.88629403454286L189.71494745737513,299.7443224079143L192.1017832411327,299.1499060301571L194.4116243221884,299.05024498525717L196.79846010594596,299.0007217010143L199.18529588970353,298.7614104054857L201.49513697075923,299.1195959409L203.88518086712935,298.42559863585717L206.19502194818506,298.0219472052L208.58185773194262,296.9700970046143L210.96869351570018,297.2933441497714L213.201539894054,297.3632573847L215.58516756519901,295.9571013295714L217.89500864625475,296.5990923304714L220.28184443001228,296.50402428257144L222.59168551106796,296.1364847880429L224.97852129482555,294.81079228255714L227.3653570785831,294.1727342826L229.6751981596388,292.1988150099L232.06524205600894,290.0706744037714L234.37508313706468,288.02642187351427L236.7619189208222,287.14293061182855L239.1487547045798,287.42206747607145L241.30460638023175,285.09832102024285L243.68823405137672,285.87380111057143L245.99807513243246,283.5526188607714L248.38491091619002,282.87812625985714L250.6947519972457,281.5310376491143L253.0815877810033,281.0891356474286L255.46842356476083,276.5249021203286L257.77826464581653,279.41261047594287L260.16830854218665,277.7617035013714L262.4781496232424,276.4076004067286L264.86498540699995,276.8278454757857L267.2518211907575,273.28891546585714L269.4076728664095,270.26279968937143L271.7913005375545,269.79901551368573L274.10114161861014,270.00628316657145L276.48797740236773,267.87097462727144L278.79781848342344,266.28587728714285L281.18465426718103,262.1803568229L283.57149005093856,260.3968738809L285.8813311319943,262.1483218999286L288.2713750283644,261.07273969345715L290.5812161094201,260.5186596726L292.9680518931777,257.9184269368714L295.3548876769352,258.9145200361286L297.5107393525872,256.13766744167145L299.89436702373223,257.8426465449857L302.2042081047879,258.0876797696143L304.59104388854547,252.9650672301L306.9008849696012,254.25241541494285L309.2877207533587,249.7697250548143L311.6745565371163,249.3110111103L313.984397618172,250.6898582724857L316.3744415145421,254.44246886515714L318.68428259559784,247.82779462787144L321.0711183793554,248.9778322575L323.45795416311296,250.0983590229L325.6908005414668,249.99565018615715L328.0744282126118,248.4747743550857L330.3842692936675,249.56726609074286L332.77110507742503,252.59416656094285L335.08094615848074,250.1560992668143L337.46778194223833,248.6329872201L339.85461772599587,244.70894937827143L342.1644588070516,249.57587709964287L344.5545027034217,248.64277053167143L346.86434378447746,247.32811353861428L349.251179568235,248.18476433974286L351.6380153519925,249.42304317308572L353.7938670276445,248.29547713937143L356.17749469878953,247.49916577067142L358.4873357798452,248.47821098078572L360.8741715636028,247.8244520001L363.1840126446585,246.85862230195715L365.57084842841607,250.41134832218572L367.9576842121736,245.47621053647143L370.2675252932293,247.8832254735L372.6575691895994,249.357635868L374.96741027065514,252.97865954550002L377.3542460544127,254.71258939418573L379.74108183817026,254.89359660762858L381.89693351382226,256.8053115533143L384.28056118496727,255.18147075638572L386.5904022660229,258.4614021924L388.9772380497805,257.85668731105716L391.2870791308362,260.8241066612143L393.67391491459375,260.7919995137143L396.06075069835134,256.29500756258574L398.37059177940705,259.21565013021427L400.76063567577717,258.6503317699286L403.0704767568329,260.6939776027286L405.45731254059046,261.3122204484429L407.844148324348,262.4678110734L410,263.84852793287143" data-legend="vue.js" style="stroke: rgb(44, 160, 44); fill: none;"></path><path class="line" d="M2.3868357837575607,300L4.696676864813264,300L7.086720761183402,300L9.396561842239105,300L11.783397625996667,300L14.170233409754228,300L16.326085085406216,300L18.7097127565512,300L21.019553837606903,300L23.406389621364465,300L25.716230702420173,300L28.103066486177728,300L30.48990226993529,300L32.799743350990994,300L35.18978724736113,300L37.49962832841683,300L39.886464112174394,300L42.273299895931956,300L44.42915157158395,300L46.81277924272893,300L49.12262032378463,300L51.5094561075422,300L53.81929718859789,300L56.206132972355455,300L58.59296875611302,300L60.902809837168725,300L63.29285373353886,300L65.60269481459457,300L67.98953059835213,300L70.37636638210968,300L72.53221805776167,300L74.91584572890666,300L77.22568680996235,300L79.61252259371992,300L81.92236367477562,300L84.30919945853319,300L86.69603524229075,300L89.00587632334646,299.95756550472856L91.39592021971659,299.88156429874283L93.7057613007723,298.67315347195716L96.09259708452986,298.000772541L98.47943286828742,296.87387112012857L100.71227924664126,295.97682220452856L103.09590691778625,296.0608016380286L105.40574799884195,295.9987878995143L107.79258378259951,295.52261409107143L110.10242486365522,294.68612724955716L112.48926064741278,294.2405324307857L114.87609643117034,293.18547887498573L117.18593751222603,295.25098314244286L119.57598140859618,295.0750639902L121.88582248965187,293.6915753856857L124.27265827340943,290.6631107996143L126.659494057167,288.6380402922L128.815345732819,288.8152722072857L131.19897340396398,289.3496666420571L133.50881448501968,290.69326129902856L135.89565026877725,291.9533750364L138.20549134983295,287.9490486756L140.59232713359052,286.66331981918574L142.97916291734808,285.90516949405713L145.28900399840376,289.1119741747286L147.6790478947739,288.96052715322855L149.9888889758296,288.2143834932L152.37572475958717,290.24676224485717L154.76256054334473,289.22921935954287L156.91841221899674,290.0853793641857L159.3020398901417,288.5540633445857L161.6118809711974,288.0536042382429L163.99871675495496,286.1429413668429L166.30855783601066,288.24702700992856L168.69539361976823,286.6808080310143L171.0822294035258,288.6121267850143L173.3920704845815,289.0990638166286L175.78211438095164,289.65165754577146L178.09195546200735,288.75461269131426L180.4787912457649,287.73275069678573L182.86562702952247,289.54485079632855L185.02147870517445,290.36392106597145L187.40510637631942,290.83529918314287L189.71494745737513,290.95831060645713L192.1017832411327,290.2813581285429L194.4116243221884,291.1208949784714L196.79846010594596,291.10166467075715L199.18529588970353,291.9613106706857L201.49513697075923,292.58607108107145L203.88518086712935,292.7335321654286L206.19502194818506,293.9156097577286L208.58185773194262,292.74731881422855L210.96869351570018,294.0820575477857L213.201539894054,293.8047267005571L215.58516756519901,294.28720840045713L217.89500864625475,293.86010628788574L220.28184443001228,292.8907339437429L222.59168551106796,294.2536324379143L224.97852129482555,294.3585218851286L227.3653570785831,294.07182924852856L229.6751981596388,295.1612903226L232.06524205600894,295.9739301687L234.37508313706468,296.2665903392143L236.7619189208222,295.0285998366L239.1487547045798,294.95894256407144L241.30460638023175,295.7914566570429L243.68823405137672,295.2993437658L245.99807513243246,296.26512219548573L248.38491091619002,296.5513389062571L250.6947519972457,296.1232034700429L253.0815877810033,295.58339813185717L255.46842356476083,296.52814252067145L257.77826464581653,297.88782035785715L260.16830854218665,297.4892245888714L262.4781496232424,297.61692933402855L264.86498540699995,297.67738311295716L267.2518211907575,297.9061226106857L269.4076728664095,297.59496947785715L271.7913005375545,298.0274732109857L274.10114161861014,297.64704462775717L276.48797740236773,297.89363907085715L278.79781848342344,298.0439832108857L281.18465426718103,297.4768620940714L283.57149005093856,298.0138249818857L285.8813311319943,297.26536517305715L288.2713750283644,297.90994575535717L290.5812161094201,298.75079855751426L292.9680518931777,298.7195095333714L295.3548876769352,298.3672677760286L297.5107393525872,298.38046772095714L299.89436702373223,298.7817431461286L302.2042081047879,298.3913023078286L304.59104388854547,298.75213443672857L306.9008849696012,298.8778894347429L309.2877207533587,298.9852469708143L311.6745565371163,298.9830422292L313.984397618172,299.0041229310857L316.3744415145421,298.6247887197857L318.68428259559784,298.9526282485286L321.0711183793554,298.66975808322854L323.45795416311296,298.9840384472143L325.6908005414668,299.02823306858573L328.0744282126118,298.95765060767144L330.3842692936675,299.164098333L332.77110507742503,299.3443874099143L335.08094615848074,299.2171115068286L337.46778194223833,299.0071185705L339.85461772599587,299.29624008617145L342.1644588070516,299.3887985103L344.5545027034217,299.1659662922143L346.86434378447746,299.38603322532856L349.251179568235,299.5357057736571L351.6380153519925,299.57221832224286L353.7938670276445,299.5926486663L356.17749469878953,299.65041817405717L358.4873357798452,299.38587578961426L360.8741715636028,299.6306750142L363.1840126446585,299.51150407894283L365.57084842841607,299.5392048093L367.9576842121736,299.60280683172857L370.2675252932293,299.3821581820714L372.6575691895994,299.6374920248571L374.96741027065514,299.65368898195715L377.3542460544127,299.4217090425857L379.74108183817026,299.4319092771857L381.89693351382226,299.6168213121857L384.28056118496727,299.4331253218286L386.5904022660229,299.5113106140429L388.9772380497805,299.42791883228574L391.2870791308362,299.58255195625713L393.67391491459375,299.3397209220857L396.06075069835134,299.3863573605L398.37059177940705,299.60499419014286L400.76063567577717,299.56077742397144L403.0704767568329,299.6784052713L405.45731254059046,299.67640333092857L407.844148324348,299.6019916338857L410,299.8142267622857" data-legend="ember.js" style="stroke: rgb(214, 39, 40); fill: none;"></path><path class="line" d="M2.3868357837575607,300L4.696676864813264,300L7.086720761183402,300L9.396561842239105,300L11.783397625996667,300L14.170233409754228,300L16.326085085406216,300L18.7097127565512,300L21.019553837606903,300L23.406389621364465,300L25.716230702420173,300L28.103066486177728,300L30.48990226993529,300L32.799743350990994,300L35.18978724736113,300L37.49962832841683,300L39.886464112174394,300L42.273299895931956,300L44.42915157158395,300L46.81277924272893,300L49.12262032378463,300L51.5094561075422,300L53.81929718859789,300L56.206132972355455,300L58.59296875611302,300L60.902809837168725,300L63.29285373353886,299.68999809865716L65.60269481459457,299.3171858124L67.98953059835213,299.62195198791426L70.37636638210968,298.64631511358573L72.53221805776167,298.4612820085714L74.91584572890666,297.6109589370429L77.22568680996235,296.39253254237144L79.61252259371992,296.52084160842855L81.92236367477562,295.5497550225857L84.30919945853319,294.137079891L86.69603524229075,293.0408914407429L89.00587632334646,291.6828389243143L91.39592021971659,292.4595936866143L93.7057613007723,289.34376382135713L96.09259708452986,290.3000445507L98.47943286828742,288.25964931784284L100.71227924664126,289.8615919554L103.09590691778625,288.4828522467L105.40574799884195,287.16411158155717L107.79258378259951,284.46083713950003L110.10242486365522,285.6069960930429L112.48926064741278,285.61656776365714L114.87609643117034,288.16425278288574L117.18593751222603,287.6237742499714L119.57598140859618,289.5381536832857L121.88582248965187,286.1724430170857L124.27265827340943,284.88573947618573L126.659494057167,284.6909575153286L128.815345732819,286.9511509085143L131.19897340396398,287.81380296634285L133.50881448501968,286.4417149286571L135.89565026877725,287.34361361652856L138.20549134983295,287.5090545096L140.59232713359052,286.2069315240429L142.97916291734808,287.7549531648857L145.28900399840376,288.9480684096L147.6790478947739,288.4464940494857L149.9888889758296,289.4920277605286L152.37572475958717,289.4016339147857L154.76256054334473,288.3794989252286L156.91841221899674,290.0853793641857L159.3020398901417,290.57654923902857L161.6118809711974,291.68413108165714L163.99871675495496,291.8347082526429L166.30855783601066,291.0267758084143L168.69539361976823,292.2833252878286L171.0822294035258,292.876079313L173.3920704845815,292.0924559036143L175.78211438095164,293.3511899731714L178.09195546200735,293.4193659453L180.4787912457649,294.04830489312855L182.86562702952247,294.8236761295714L185.02147870517445,295.09105412798573L187.40510637631942,295.633690926L189.71494745737513,295.3745599246714L192.1017832411327,294.9224116936286L194.4116243221884,294.6106924745143L196.79846010594596,295.26532424995713L199.18529588970353,295.1670719742L201.49513697075923,295.1114406190714L203.88518086712935,295.9549995721286L206.19502194818506,297.3459038449714L208.58185773194262,297.16095703585717L210.96869351570018,297.22453086544283L213.201539894054,297.21319886185717L215.58516756519901,297.29741012794284L217.89500864625475,297.7403365149L220.28184443001228,298.07604020922855L222.59168551106796,298.0926950219571L224.97852129482555,298.02429247457144L227.3653570785831,298.1837093868L229.6751981596388,297.38314680711426L232.06524205600894,298.14751388130003L234.37508313706468,298.4799689238429L236.7619189208222,298.5551102973429L239.1487547045798,298.86329097034286L241.30460638023175,298.7116704052286L243.68823405137672,299.03079252904286L245.99807513243246,298.93289205587143L248.38491091619002,298.83425540494284L250.6947519972457,299.22945659031427L253.0815877810033,299.26796654121426L255.46842356476083,299.1988021201714L257.77826464581653,299.51648899761426L260.16830854218665,299.38511622587146L262.4781496232424,299.46380910017143L264.86498540699995,299.48686371102855L267.2518211907575,299.4906784728857L269.4076728664095,299.59916157964284L271.7913005375545,299.6268192561429L274.10114161861014,299.5604369085L276.48797740236773,299.6348974389857L278.79781848342344,299.67399720184284L281.18465426718103,299.5886188197L283.57149005093856,299.78934507385713L285.8813311319943,299.7563196689143L288.2713750283644,299.6516576259L290.5812161094201,299.7041365005L292.9680518931777,299.7089794394143L295.3548876769352,299.52502335304285L297.5107393525872,299.7570701581714L299.89436702373223,299.7733475620714L302.2042081047879,299.712732555L304.59104388854547,299.8720137884143L306.9008849696012,299.7410514080143L309.2877207533587,299.49262348542857L311.6745565371163,299.77754048764285L313.984397618172,299.6585564335286L316.3744415145421,299.8244411131714L318.68428259559784,299.80361779662854L321.0711183793554,299.76351254815717L323.45795416311296,299.7011877786L325.6908005414668,299.88894092215713L328.0744282126118,299.9052409643571L330.3842692936675,299.83746356477144L332.77110507742503,299.8739206557857L335.08094615848074,299.9478074338286L337.46778194223833,299.97079760502857L339.85461772599587,299.8470087144L342.1644588070516,299.8777597020857L344.5545027034217,299.8075306828286L346.86434378447746,299.87074383694284L349.251179568235,299.75237641264283L351.6380153519925,299.9012811513L353.7938670276445,299.9418069523286L356.17749469878953,300L358.4873357798452,299.9676776731714L360.8741715636028,299.86570000517145L363.1840126446585,299.93021486845714L365.57084842841607,299.9645542161L367.9576842121736,299.9277830603143L370.2675252932293,299.9636563636714L372.6575691895994,299.9637492024857L374.96741027065514,299.961520998L377.3542460544127,299.8915704455143L379.74108183817026,299.92425457032857L381.89693351382226,299.96516557384285L384.28056118496727,299.9645703326143L386.5904022660229,299.69456913377144L388.9772380497805,299.87287085164286L391.2870791308362,299.8715544480857L393.67391491459375,299.9056744174714L396.06075069835134,299.9659087422857L398.37059177940705,299.86833139671427L400.76063567577717,299.9686269588857L403.0704767568329,299.8213362618429L405.45731254059046,299.8561792581857L407.844148324348,299.9601991634143L410,299.9256907049143" data-legend="backbone.js" style="stroke: rgb(148, 103, 189); fill: none;"></path><path class="line" d="M2.3868357837575607,300L4.696676864813264,300L7.086720761183402,300L9.396561842239105,300L11.783397625996667,300L14.170233409754228,300L16.326085085406216,300L18.7097127565512,300L21.019553837606903,300L23.406389621364465,300L25.716230702420173,300L28.103066486177728,300L30.48990226993529,300L32.799743350990994,300L35.18978724736113,300L37.49962832841683,300L39.886464112174394,300L42.273299895931956,300L44.42915157158395,300L46.81277924272893,300L49.12262032378463,300L51.5094561075422,300L53.81929718859789,300L56.206132972355455,300L58.59296875611302,300L60.902809837168725,299.7969272841857L63.29285373353886,299.68999809865716L65.60269481459457,299.1309637612286L67.98953059835213,299.40592455244285L70.37636638210968,299.3231575568143L72.53221805776167,299.31612533717146L74.91584572890666,299.14355131705713L77.22568680996235,298.79751084745715L79.61252259371992,298.17344184445716L81.92236367477562,298.0744132309286L84.30919945853319,297.34963885487144L86.69603524229075,296.7524160057L89.00587632334646,297.49636477825715L91.39592021971659,296.9206717673143L93.7057613007723,295.8950685537429L96.09259708452986,295.81643142835713L98.47943286828742,294.0950898936L100.71227924664126,293.14450503651426L103.09590691778625,293.72398905038574L105.40574799884195,292.6697794318714L107.79258378259951,291.96704292805714L110.10242486365522,292.19619830361427L112.48926064741278,291.68076906668574L114.87609643117034,292.9898466896143L117.18593751222603,290.7610035680143L119.57598140859618,290.29583614632855L121.88582248965187,290.1868950444L124.27265827340943,289.7047790634857L126.659494057167,289.2864896055857L128.815345732819,288.6661425033857L131.19897340396398,287.6627344080857L133.50881448501968,288.7748806197L135.89565026877725,288.5165114925857L138.20549134983295,289.29347529394283L140.59232713359052,290.5933301386286L142.97916291734808,290.41238886102855L145.28900399840376,290.1188238747L147.6790478947739,289.9396378269857L149.9888889758296,289.80492023417145L152.37572475958717,290.5436992257L154.76256054334473,290.3315593824857L156.91841221899674,292.1223454486714L159.3020398901417,291.8211559433143L161.6118809711974,290.85009113117144L163.99871675495496,291.67512600351426L166.30855783601066,292.41665020765714L168.69539361976823,291.4905162420429L171.0822294035258,292.9540784446286L173.3920704845815,293.6390418152143L175.78211438095164,294.6706036360714L178.09195546200735,294.22459120937145L180.4787912457649,293.32058671414285L182.86562702952247,294.1061658900857L185.02147870517445,293.6138250461143L187.40510637631942,294.7695255884143L189.71494745737513,295.0259086626857L192.1017832411327,293.95744016031426L194.4116243221884,294.7211291041286L196.79846010594596,295.0987778667857L199.18529588970353,295.14278590375716L201.49513697075923,295.18094620268573L203.88518086712935,295.4463468237L206.19502194818506,294.56661447501426L208.58185773194262,295.34778673937143L210.96869351570018,294.86194143685714L213.201539894054,295.24100113332855L215.58516756519901,296.00104588032855L217.89500864625475,296.11976977302857L220.28184443001228,295.8939882513429L222.59168551106796,296.52772683484284L224.97852129482555,296.2390145901L227.3653570785831,296.4935500661571L229.6751981596388,296.1734693877857L232.06524205600894,296.5914255416143L234.37508313706468,296.31992476294283L236.7619189208222,296.69389644304283L239.1487547045798,296.8616946354857L241.30460638023175,296.6073987337286L243.68823405137672,296.41393235742856L245.99807513243246,296.28832019425715L248.38491091619002,295.9684666087286L250.6947519972457,296.72519050885717L253.0815877810033,297.29147620242856L255.46842356476083,297.3293404005L257.77826464581653,297.5315490929143L260.16830854218665,297.66856568965716L262.4781496232424,297.2594687341286L264.86498540699995,298.2175265751L267.2518211907575,297.7646444087143L269.4076728664095,298.1461223058429L271.7913005375545,298.3206866526L274.10114161861014,298.2934609388143L276.48797740236773,298.3149112566857L278.79781848342344,298.23415150984283L281.18465426718103,298.1350719825857L283.57149005093856,298.4050412733429L285.8813311319943,298.37546445925716L288.2713750283644,298.8098302218L290.5812161094201,298.78367227971427L292.9680518931777,298.37028486064287L295.3548876769352,298.9313025443143L297.5107393525872,299.1902338605L299.89436702373223,299.32004268621426L302.2042081047879,298.9945639424143L304.59104388854547,298.94411375417144L306.9008849696012,298.24490398765715L309.2877207533587,298.82669181L311.6745565371163,298.95126229885716L313.984397618172,299.08948382271427L316.3744415145421,299.3562840816L318.68428259559784,299.3126622880714L321.0711183793554,299.1131720554714L323.45795416311296,299.22308822434286L325.6908005414668,299.3891750717143L328.0744282126118,299.52620482165713L330.3842692936675,299.5123906942714L332.77110507742503,299.44525088532856L335.08094615848074,299.39978548855714L337.46778194223833,299.5035592852714L339.85461772599587,299.4186331146857L342.1644588070516,299.5721589572143L344.5545027034217,299.0697316336286L346.86434378447746,299.57991746995714L349.251179568235,299.69047051577144L351.6380153519925,299.67093717094286L353.7938670276445,299.62174519011427L356.17749469878953,299.4915173440286L358.4873357798452,299.7090990582429L360.8741715636028,299.4628000206L363.1840126446585,299.58128921052855L365.57084842841607,299.645542161L367.9576842121736,299.7833491809429L370.2675252932293,299.67290727287144L372.6575691895994,299.5649904298286L374.96741027065514,299.65368898195715L377.3542460544127,299.31327948805716L379.74108183817026,299.5834001366143L381.89693351382226,299.6864901645L384.28056118496727,299.5039846566L386.5904022660229,299.5113106140429L388.9772380497805,299.4597011193857L391.2870791308362,299.4541064043L393.67391491459375,299.55981394804286L396.06075069835134,299.62499616475714L398.37059177940705,299.60499419014286L400.76063567577717,299.6235235062857L403.0704767568329,299.5712070284143L405.45731254059046,299.7842688873L407.844148324348,299.6417924705143L410,299.6656081720714" data-legend="knockout.js" style="stroke: rgb(140, 86, 75); fill: none;"></path><path class="line" d="M2.3868357837575607,300L4.696676864813264,300L7.086720761183402,300L9.396561842239105,300L11.783397625996667,300L14.170233409754228,300L16.326085085406216,300L18.7097127565512,300L21.019553837606903,300L23.406389621364465,300L25.716230702420173,300L28.103066486177728,300L30.48990226993529,300L32.799743350990994,299.8807370451L35.18978724736113,300L37.49962832841683,300L39.886464112174394,300L42.273299895931956,300L44.42915157158395,300L46.81277924272893,300L49.12262032378463,300L51.5094561075422,300L53.81929718859789,300L56.206132972355455,300L58.59296875611302,300L60.902809837168725,300L63.29285373353886,300L65.60269481459457,300L67.98953059835213,300L70.37636638210968,300L72.53221805776167,299.9572578336L74.91584572890666,300L77.22568680996235,299.9570539588714L79.61252259371992,300L81.92236367477562,299.91441836584283L84.30919945853319,299.9598430129714L86.69603524229075,299.9156471690143L89.00587632334646,299.8726965141857L91.39592021971659,299.96052143292854L93.7057613007723,299.958536046L96.09259708452986,299.9629772693143L98.47943286828742,299.8957957040143L100.71227924664126,299.77470204347145L103.09590691778625,299.66616963034284L105.40574799884195,298.9116703086857L107.79258378259951,297.6296192247L110.10242486365522,297.11532622118574L112.48926064741278,294.66715965814285L114.87609643117034,293.9027968881857L117.18593751222603,291.73958885987145L119.57598140859618,291.1992267753429L121.88582248965187,289.10363021164284L124.27265827340943,283.27026597814285L126.659494057167,280.8848419804286L128.815345732819,276.98431569767143L131.19897340396398,271.8508919759143L133.50881448501968,268.1911744119429L135.89565026877725,265.84957812047145L138.20549134983295,259.5205367277L140.59232713359052,251.29322694415714L142.97916291734808,248.7531763304143L145.28900399840376,248.18236311527144L147.6790478947739,246.95667924827143L149.9888889758296,243.96617284705715L152.37572475958717,234.44545115387143L154.76256054334473,230.23106271702858L156.91841221899674,227.56299179048574L159.3020398901417,221.92315442609998L161.6118809711974,210.85584764220002L163.99871675495496,203.10697773385715L166.30855783601066,194.49146446435714L168.69539361976823,188.45176725947144L171.0822294035258,189.83922645664285L173.3920704845815,189.14471304595716L175.78211438095164,191.54937107952856L178.09195546200735,184.88055362477144L180.4787912457649,179.48467156954285L182.86562702952247,181.61081048764288L185.02147870517445,179.57173992587144L187.40510637631942,178.51654649211432L189.71494745737513,166.6060271731286L192.1017832411327,162.6294095753143L194.4116243221884,155.3280151961143L196.79846010594596,155.27119302728573L199.18529588970353,157.0279030759286L201.49513697075923,159.45970993007145L203.88518086712935,160.19315886278574L206.19502194818506,157.85562384617143L208.58185773194262,153.0616334756143L210.96869351570018,158.9557048889143L213.201539894054,162.50351922964288L215.58516756519901,162.89300161058574L217.89500864625475,158.59984555165715L220.28184443001228,158.2135485874286L222.59168551106796,159.83753674011427L224.97852129482555,161.91470656380002L227.3653570785831,172.1028693187714L229.6751981596388,188.0678077683L232.06524205600894,189.59182732525716L234.37508313706468,187.5977019975L236.7619189208222,193.61693443388572L239.1487547045798,202.93493329251427L241.30460638023175,204.34152758674287L243.68823405137672,211.3659767794286L245.99807513243246,215.11852244215714L248.38491091619002,220.8022265721857L250.6947519972457,227.1114093399857L253.0815877810033,233.31175190250002L255.46842356476083,233.23351001232857L257.77826464581653,244.14175524677142L260.16830854218665,246.47949149112858L262.4781496232424,249.2108064311143L264.86498540699995,251.81920318037143L267.2518211907575,256.90573967635714L269.4076728664095,264.22517098264285L271.7913005375545,264.30792742525716L274.10114161861014,265.27451576957145L276.48797740236773,268.88202787324286L278.79781848342344,272.6700987516857L281.18465426718103,275.1251512968857L283.57149005093856,275.50384144307145L285.8813311319943,277.2835780215L288.2713750283644,278.4608298676714L290.5812161094201,278.79644919972856L292.9680518931777,278.98831552452856L295.3548876769352,280.6150155951L297.5107393525872,283.5347551627286L299.89436702373223,283.9076769069857L302.2042081047879,285.4642672813286L304.59104388854547,286.1454925923L306.9008849696012,287.4841513871143L309.2877207533587,288.6474504858857L311.6745565371163,289.8304222917429L313.984397618172,289.8989611579714L316.3744415145421,290.9879771422714L318.68428259559784,290.0172379934143L321.0711183793554,290.2448926101L323.45795416311296,291.6033765781286L325.6908005414668,291.7260986982429L328.0744282126118,291.8033434146429L330.3842692936675,292.9877137935L332.77110507742503,293.0656360661143L335.08094615848074,292.640848164L337.46778194223833,294.1595210028857L339.85461772599587,293.3295799471286L342.1644588070516,294.01022540095715L344.5545027034217,294.9637195337143L346.86434378447746,295.9284308625L349.251179568235,295.4808695302286L351.6380153519925,296.2486837487143L353.7938670276445,294.61714308994283L356.17749469878953,295.42365609625716L358.4873357798452,295.2162956243143L360.8741715636028,294.52727520981426L363.1840126446585,295.1848259210143L365.57084842841607,295.25026495727144L367.9576842121736,295.59476667912855L370.2675252932293,295.96585636512856L372.6575691895994,296.70117742594283L374.96741027065514,296.2675368051857L377.3542460544127,296.8193997340286L379.74108183817026,295.9097467956857L381.89693351382226,296.2727164002L384.28056118496727,296.06730692014287L386.5904022660229,295.6934247861429L388.9772380497805,295.39156837114285L391.2870791308362,296.27507899405714L393.67391491459375,296.8872557753571L396.06075069835134,296.65905674035713L398.37059177940705,296.90578782265715L400.76063567577717,297.3646645437857L403.0704767568329,295.8192685268571L405.45731254059046,295.46964663244285L407.844148324348,295.8607129922143L410,295.6900608840857" data-legend="angularjs" style="stroke: rgb(227, 119, 194); fill: none;"></path></g></g><g transform="translate(20, 150)"><text transform="rotate(-90)" x="-50" y="0" dy="1em" class="axis-label y-axis-label" style="text-anchor: middle; font-weight: bold;">% of Stack Overflow questions that month</text></g><g class="legend" transform="translate(530, 30)" style="font-size: 12px;"><text class="legend-title" style="font-weight: bold;">Tag</text><g class="legend-items" transform="translate(0,20)"><text y="0em" x="1em">reactjs</text><text y="1em" x="1em">angularjs</text><text y="2em" x="1em">angular</text><text y="3em" x="1em">vue.js</text><text y="4em" x="1em">backbone.js</text><text y="5em" x="1em">ember.js</text><text y="6em" x="1em">knockout.js</text><circle cy="-0.25em" cx="0" r="0.4em" style="fill: rgb(31, 119, 180);"></circle><circle cy="0.75em" cx="0" r="0.4em" style="fill: rgb(227, 119, 194);"></circle><circle cy="1.75em" cx="0" r="0.4em" style="fill: rgb(255, 127, 14);"></circle><circle cy="2.75em" cx="0" r="0.4em" style="fill: rgb(44, 160, 44);"></circle><circle cy="3.75em" cx="0" r="0.4em" style="fill: rgb(148, 103, 189);"></circle><circle cy="4.75em" cx="0" r="0.4em" style="fill: rgb(214, 39, 40);"></circle><circle cy="5.75em" cx="0" r="0.4em" style="fill: rgb(140, 86, 75);"></circle></g><rect class="legend-box"></rect></g></svg>
        